<?xml version="1.0" encoding="UTF-8"?>
<svg id="_РЎР»РѕР№_1" data-name="РЎР»РѕР№_1" xmlns="http://www.w3.org/2000/svg" viewBox="0 0 246.95 164.34">
  <defs>
    <style>
      .cls-1 {
        fill: #fff;
      }

      .cls-2 {
        fill: #ccc;
      }
    </style>
  </defs>
  <g>
    <path class="cls-2" d="M205.27,83.51c-4.3-15.64,4.88-31.8,20.52-36.11l-5.57-20.22-145.61,40.09,26.72,97.08,145.61-40.09-5.57-20.22c-15.64,4.3-31.8-4.88-36.11-20.52Z"/>
    <polygon class="cls-1" points="144.02 74.39 156.35 91.55 177.4 93.36 160.24 105.69 158.43 126.74 146.1 109.58 125.05 107.77 142.21 95.44 144.02 74.39"/>
  </g>
  <path class="cls-2" d="M41.73,90.85c-13.21-1.19-26.56-.35-39.54,2.41-1.59.34-2.51,2.19-2.1,3.69.45,1.64,2.1,2.43,3.69,2.1,12.46-2.65,25.26-3.34,37.94-2.2,1.62.15,3-1.48,3-3,0-1.74-1.38-2.85-3-3h0Z"/>
  <path class="cls-2" d="M42.09,50.41c-6.82-7.24-14.63-13.53-23.07-18.8-1.37-.86-3.3-.29-4.1,1.08-.84,1.44-.3,3.24,1.08,4.1,8.02,5.01,15.37,10.97,21.86,17.86,1.11,1.18,3.12,1.12,4.24,0s1.11-3.06,0-4.24h0Z"/>
  <path class="cls-2" d="M77.09,26.05c-2.06-7.97-4.12-15.95-6.17-23.92-.96-3.74-6.75-2.15-5.79,1.6,2.06,7.97,4.12,15.95,6.17,23.92.96,3.74,6.75,2.15,5.79-1.6h0Z"/>
</svg>